# xmcd CD database file
#
# Track frame offsets:
#	150
#	12400
#	34832
#	48567
#	66702
#	90260
#	107440
#	126942
#	138462
#	149727
#	173127
#	198137
#	212197
#
# Disc length: 3172 seconds
#
# Revision: 1
# Processed by: cddbd v1.5PL3 Copyright (c) Steve Scherf et al.
# Submitted via: CDex 1.51
#
DISCID=c30c620d
DTITLE=Trio Lirico - Silouette
DYEAR=1995
DGENRE=Jazz
TTITLE0=Paindrops
TTITLE1=Shall I compare Thee
TTITLE2=To Anthea who may command him anyting
TTITLE3=Cherry Ripe
TTITLE4=Falling grace
TTITLE5=Silhoutte
TTITLE6=Nu har jag fått den jag vill ha
TTITLE7=Vackra höga kusten
TTITLE8=Yesterdays
TTITLE9=Tillägnan
TTITLE10=Låt till Andreas
TTITLE11=Don't get around much anymore
TTITLE12=Nature boy
EXTD=YEAR: 1995
EXTT0=
EXTT1=
EXTT2=
EXTT3=
EXTT4=
EXTT5=
EXTT6=
EXTT7=
EXTT8=
EXTT9=
EXTT10=
EXTT11=
EXTT12=
PLAYORDER=
